<svg xmlns="http://www.w3.org/2000/svg" viewBox="0 0 100 100" width="100" height="100">
  <defs><clipPath id="r"><rect x="2.5" y="2.5" width="95.0" height="95.0" rx="9.5"/></clipPath></defs>
  <rect width="100" height="100" rx="12.0" fill="#111111"/>
  <g clip-path="url(#r)"><rect x="2.5" y="2.5" width="44.5" height="44.5" fill="#ffffff"/><rect x="53.0" y="2.5" width="44.5" height="44.5" fill="#ffffff"/><rect x="2.5" y="53.0" width="44.5" height="44.5" fill="#ffffff"/><rect x="53.0" y="53.0" width="44.5" height="44.5" fill="#e5342a"/></g>
  <path transform="translate(24.750 24.750) scale(0.02310 -0.02310) translate(-333.5 -344)" fill="#111111" d="M614 468H436V475Q436 514 412.0 539.5Q388 565 342 565Q295 565 268.5 532.5Q242 500 242 445V387Q271 413 311.0 426.0Q351 439 387 439Q456 439 511.5 414.5Q567 390 599.0 342.5Q631 295 631 228Q631 114 552.5 51.0Q474 -12 339 -12Q188 -12 114.5 70.5Q41 153 41 327Q41 524 113.5 612.0Q186 700 339 700Q464 700 539.0 639.5Q614 579 614 468ZM242 221Q242 174 267.0 148.5Q292 123 339 123Q387 123 412.5 147.5Q438 172 438 219Q438 266 412.5 292.5Q387 319 340 319Q293 319 267.5 293.5Q242 268 242 221Z"/><path transform="translate(75.250 24.750) scale(0.02310 -0.02310) translate(-333.5 -344)" fill="#111111" d="M614 468H436V475Q436 514 412.0 539.5Q388 565 342 565Q295 565 268.5 532.5Q242 500 242 445V387Q271 413 311.0 426.0Q351 439 387 439Q456 439 511.5 414.5Q567 390 599.0 342.5Q631 295 631 228Q631 114 552.5 51.0Q474 -12 339 -12Q188 -12 114.5 70.5Q41 153 41 327Q41 524 113.5 612.0Q186 700 339 700Q464 700 539.0 639.5Q614 579 614 468ZM242 221Q242 174 267.0 148.5Q292 123 339 123Q387 123 412.5 147.5Q438 172 438 219Q438 266 412.5 292.5Q387 319 340 319Q293 319 267.5 293.5Q242 268 242 221Z"/><path transform="translate(24.750 75.250) scale(0.02310 -0.02310) translate(-333.5 -344)" fill="#111111" d="M614 468H436V475Q436 514 412.0 539.5Q388 565 342 565Q295 565 268.5 532.5Q242 500 242 445V387Q271 413 311.0 426.0Q351 439 387 439Q456 439 511.5 414.5Q567 390 599.0 342.5Q631 295 631 228Q631 114 552.5 51.0Q474 -12 339 -12Q188 -12 114.5 70.5Q41 153 41 327Q41 524 113.5 612.0Q186 700 339 700Q464 700 539.0 639.5Q614 579 614 468ZM242 221Q242 174 267.0 148.5Q292 123 339 123Q387 123 412.5 147.5Q438 172 438 219Q438 266 412.5 292.5Q387 319 340 319Q293 319 267.5 293.5Q242 268 242 221Z"/><path transform="translate(75.250 75.250) scale(0.02310 -0.02310) translate(-333.5 -344)" fill="#ffffff" d="M626 344Q626 171 560.5 79.5Q495 -12 334 -12Q172 -12 106.5 79.5Q41 171 41 344Q41 517 106.5 608.5Q172 700 334 700Q495 700 560.5 608.5Q626 517 626 344ZM238 394V295Q238 203 260.0 163.0Q282 123 334 123Q386 123 407.0 163.0Q428 203 428 295V394Q428 486 407.0 525.5Q386 565 334 565Q282 565 260.0 525.0Q238 485 238 394Z"/>
</svg>
