<svg xmlns="http://www.w3.org/2000/svg" height="30px" viewBox="150 454.5 700 91.01">
  <defs/>
  <path transform="matrix(0.49704336963756135 0 0 0.49704336963756135 29.62414552834764 22.750714381500156)"
        d="M 368.28380492517 964.42634430272 C 368.28380492517 966.72634430272 366.38380492517 968.52634430272 364.18380492517 968.52634430272 L 347.78380492517 968.52634430272 L 347.78380492517 984.92634430272 C 347.78380492517 987.22634430272 345.88380492517 989.02634430272 343.68380492517 989.02634430272 L 335.28380492517 989.02634430272 C 332.98380492517 989.02634430272 331.18380492517 987.12634430272 331.18380492517 984.92634430272 L 331.18380492517 968.52634430272 L 314.78380492517 968.52634430272 C 312.48380492517 968.52634430272 310.68380492517 966.62634430272 310.68380492517 964.42634430272 L 310.68380492517 956.12634430272 C 310.68380492517 953.82634430272 312.58380492517 952.02634430272 314.78380492517 952.02634430272 L 331.18380492517 952.02634430272 L 331.18380492517 935.62634430272 C 331.18380492517 933.32634430272 333.08380492517 931.52634430272 335.28380492517 931.52634430272 L 343.58380492517 931.52634430272 C 345.88380492517 931.52634430272 347.68380492517 933.42634430272 347.68380492517 935.62634430272 L 347.68380492517 952.02634430272 L 364.08380492517 952.02634430272 C 366.38380492517 952.02634430272 368.18380492517 953.92634430272 368.18380492517 956.12634430272 L 368.18380492517 964.42634430272 Z"/>
  <path transform="matrix(0.49704336963756135 0 0 0.49704336963756135 29.62414552834764 22.750714381500156)"
        d="M 508.08380492517 960.32634430272 C 508.08380492517 965.95964875099 503.51710937344 970.52634430272 497.88380492517 970.52634430272 C 492.2505004769 970.52634430272 487.68380492517 965.95964875099 487.68380492517 960.32634430272 C 487.68380492517 954.69303985445 492.2505004769 950.12634430272 497.88380492517 950.12634430272 C 503.51710937344 950.12634430272 508.08380492517 954.69303985445 508.08380492517 960.32634430272 Z"/>
  <path transform="matrix(0.49704336963756135 0 0 0.49704336963756135 29.62414552834764 22.750714381500156)"
        d="M 530.98380492517 983.22634430272 C 530.98380492517 988.85964875099 526.41710937344 993.42634430272 520.78380492517 993.42634430272 C 515.1505004769 993.42634430272 510.58380492517 988.85964875099 510.58380492517 983.22634430272 C 510.58380492517 977.59303985445 515.1505004769 973.02634430272 520.78380492517 973.02634430272 C 526.41710937344 973.02634430272 530.98380492517 977.59303985445 530.98380492517 983.22634430272 Z"/>
  <path transform="matrix(0.49704336963756135 0 0 0.49704336963756135 29.62414552834764 22.750714381500156)"
        d="M 530.98380492517 937.42634430272 C 530.98380492517 943.05964875099 526.41710937344 947.62634430272 520.78380492517 947.62634430272 C 515.1505004769 947.62634430272 510.58380492517 943.05964875099 510.58380492517 937.42634430272 C 510.58380492517 931.79303985445 515.1505004769 927.22634430272 520.78380492517 927.22634430272 C 526.41710937344 927.22634430272 530.98380492517 931.79303985445 530.98380492517 937.42634430272 Z"/>
  <path transform="matrix(0.49704336963756135 0 0 0.49704336963756135 29.62414552834764 22.750714381500156)"
        d="M 553.88380492517 960.32634430272 C 553.88380492517 965.95964875099 549.31710937344 970.52634430272 543.68380492517 970.52634430272 C 538.0505004769 970.52634430272 533.48380492517 965.95964875099 533.48380492517 960.32634430272 C 533.48380492517 954.69303985445 538.0505004769 950.12634430272 543.68380492517 950.12634430272 C 549.31710937344 950.12634430272 553.88380492517 954.69303985445 553.88380492517 960.32634430272 Z"/>
  <path transform="matrix(0.49704336963756135 0 0 0.49704336963756135 29.62414552834764 22.750714381500156)"
        d="M 524.48380492517 1051.72634430272 L 498.28380492517 1051.72634430272 C 472.98380492517 1051.72634430272 459.28380492517 1034.52634430272 450.18380492517 1019.42634430272 C 450.18380492517 1019.32634430272 450.08380492517 1019.32634430272 450.08380492517 1019.22634430272 L 388.48380492517 912.52634430272 C 388.48380492517 912.52634430272 388.48380492517 912.52634430272 388.48380492517 912.52634430272 C 379.88380492517 897.52634430272 375.78380492517 891.42634430272 359.88380492517 891.42634430272 L 333.68380492517 891.42634430272 C 295.68380492517 891.42634430272 264.88380492517 922.32634430272 264.88380492517 960.22634430272 C 264.88380492517 998.22634430272 295.78380492517 1029.02634430272 333.68380492517 1029.02634430272 L 423.48380492517 1029.02634430272 C 429.68380492517 1029.02634430272 434.78380492517 1034.12634430272 434.78380492517 1040.32634430272 C 434.78380492517 1046.52634430272 429.68380492517 1051.62634430272 423.48380492517 1051.62634430272 L 333.68380492517 1051.62634430272 C 309.28380492517 1051.62634430272 286.28380492517 1042.12634430272 268.98380492517 1024.82634430272 C 251.68380492517 1007.52634430272 242.18380492517 984.62634430272 242.18380492517 960.12634430272 C 242.18380492517 935.72634430272 251.68380492517 912.72634430272 268.98380492517 895.42634430272 C 286.28380492517 878.12634430272 309.18380492517 868.62634430272 333.68380492517 868.62634430272 L 359.88380492517 868.62634430272 C 389.48380492517 868.62634430272 399.38380492517 885.92634430272 408.08380492517 901.12634430272 L 469.68380492517 1007.72634430272 C 479.08380492517 1023.22634430272 486.88380492517 1029.02634430272 498.38380492517 1029.02634430272 L 524.58380492517 1029.02634430272 C 562.58380492517 1029.02634430272 593.38380492517 998.12634430272 593.38380492517 960.22634430272 C 593.38380492517 922.22634430272 562.48380492517 891.42634430272 524.58380492517 891.42634430272 L 434.78380492517 891.42634430272 C 428.58380492517 891.42634430272 423.48380492517 886.32634430272 423.48380492517 880.12634430272 C 423.48380492517 873.92634430272 428.58380492517 868.82634430272 434.78380492517 868.82634430272 L 524.58380492517 868.82634430272 C 548.98380492517 868.82634430272 571.98380492517 878.32634430272 589.28380492517 895.62634430272 C 606.58380492517 912.92634430272 616.08380492517 935.82634430272 616.08380492517 960.32634430272 C 616.08380492517 984.72634430272 606.58380492517 1007.72634430272 589.28380492517 1025.02634430272 C 571.88380492517 1042.22634430272 548.88380492517 1051.72634430272 524.48380492517 1051.72634430272 Z"/>
  <path id="text"
        transform="matrix(0.6933991693762855 0 0 0.6933991693762855 264.0080115817192 34.468888153542686)"
        d="M 171.03800530545 668.75035262006 L 192.41300530545 668.75035262006 L 192.41300530545 694.34410262006 C 189.78800530545 697.09410262006 186.45988030545 699.42222762006 182.42863030545 701.32847762006 C 178.39738030545 703.23472762006 173.85050530545 704.18785262006 168.78800530545 704.18785262006 C 164.28800530545 704.18785262006 160.03800530545 703.39097762006 156.03800530545 701.79722762006 C 152.03800530545 700.20347762006 148.50675530545 697.95347762006 145.44425530545 695.04722762006 C 142.38175530545 692.14097762006 139.97550530545 688.68785262006 138.22550530545 684.68785262006 C 136.47550530545 680.68785262006 135.60050530545 676.25035262006 135.60050530545 671.37535262006 C 135.60050530545 666.50035262006 136.47550530545 662.06285262006 138.22550530545 658.06285262006 C 139.97550530545 654.06285262006 142.38175530545 650.60972762006 145.44425530545 647.70347762006 C 148.50675530545 644.79722762006 152.03800530545 642.54722762006 156.03800530545 640.95347762006 C 160.03800530545 639.35972762006 164.28800530545 638.56285262006 168.78800530545 638.56285262006 C 172.72550530545 638.56285262006 176.13175530545 639.10972762006 179.00675530545 640.20347762006 C 181.88175530545 641.29722762006 184.38175530545 642.78160262006 186.50675530545 644.65660262006 L 186.50675530545 657.78160262006 C 185.00675530545 656.65660262006 183.44425530545 655.56285262006 181.81925530545 654.50035262006 C 180.19425530545 653.43785262006 178.36613030545 652.56285262006 176.33488030545 651.87535262006 C 174.30363030545 651.18785262006 171.91300530545 650.84410262006 169.16300530545 650.84410262006 C 165.41300530545 650.84410262006 162.00675530545 651.75035262006 158.94425530545 653.56285262006 C 155.88175530545 655.37535262006 153.44425530545 657.81285262006 151.63175530545 660.87535262006 C 149.81925530545 663.93785262006 148.91300530545 667.43785262006 148.91300530545 671.37535262006 C 148.91300530545 675.25035262006 149.81925530545 678.73472762006 151.63175530545 681.82847762006 C 153.44425530545 684.92222762006 155.88175530545 687.35972762006 158.94425530545 689.14097762006 C 162.00675530545 690.92222762006 165.41300530545 691.81285262006 169.16300530545 691.81285262006 C 172.03800530545 691.81285262006 174.35050530545 691.46910262006 176.10050530545 690.78160262006 C 177.85050530545 690.09410262006 179.22550530545 689.34410262006 180.22550530545 688.53160262006 L 180.31925530545 678.12535262006 L 171.03800530545 678.12535262006 L 171.03800530545 668.75035262006 Z M 233.94425530545 639.50035262006 L 263.19425530545 702.78160262006 L 247.91300530545 702.78160262006 L 243.13175530545 691.06285262006 L 218.28800530545 691.06285262006 L 213.50675530545 702.78160262006 L 198.22550530545 702.78160262006 L 227.47550530545 639.50035262006 L 233.94425530545 639.50035262006 Z M 230.75675530545 660.78160262006 L 222.88175530545 680.00035262006 L 238.63175530545 680.00035262006 L 230.75675530545 660.78160262006 Z M 335.75675530545 639.50035262006 L 335.75675530545 702.78160262006 L 322.72550530545 702.78160262006 L 322.72550530545 664.53160262006 L 306.60050530545 682.15660262006 L 302.85050530545 682.15660262006 L 286.53800530545 664.53160262006 L 286.53800530545 702.78160262006 L 273.50675530545 702.78160262006 L 273.50675530545 639.50035262006 L 277.91300530545 639.50035262006 L 304.72550530545 667.43785262006 L 331.35050530545 639.50035262006 L 335.75675530545 639.50035262006 Z M 395.28800530545 665.46910262006 L 395.28800530545 676.06285262006 L 367.53800530545 676.06285262006 L 367.53800530545 691.25035262006 L 398.94425530545 691.25035262006 L 398.94425530545 702.78160262006 L 354.50675530545 702.78160262006 L 354.50675530545 639.96910262006 L 398.94425530545 639.96910262006 L 398.94425530545 651.21910262006 L 367.53800530545 651.21910262006 L 367.53800530545 665.46910262006 L 395.28800530545 665.46910262006 Z M 461.10050530545 638.75035262006 C 464.72550530545 638.75035262006 468.03800530545 639.25035262006 471.03800530545 640.25035262006 C 474.03800530545 641.25035262006 476.56925530545 642.40660262006 478.63175530545 643.71910262006 L 478.63175530545 656.56285262006 C 476.38175530545 655.18785262006 473.97550530545 653.90660262006 471.41300530545 652.71910262006 C 468.85050530545 651.53160262006 465.94425530545 650.93785262006 462.69425530545 650.93785262006 C 461.06925530545 650.93785262006 459.45988030545 651.18785262006 457.86613030545 651.68785262006 C 456.27238030545 652.18785262006 454.95988030545 652.93785262006 453.92863030545 653.93785262006 C 452.89738030545 654.93785262006 452.38175530545 656.21910262006 452.38175530545 657.78160262006 C 452.38175530545 659.84410262006 453.28800530545 661.40660262006 455.10050530545 662.46910262006 C 456.91300530545 663.53160262006 459.13175530545 664.59410262006 461.75675530545 665.65660262006 L 469.44425530545 668.84410262006 C 473.81925530545 670.71910262006 477.03800530545 673.00035262006 479.10050530545 675.68785262006 C 481.16300530545 678.37535262006 482.19425530545 681.43785262006 482.19425530545 684.87535262006 C 482.19425530545 688.62535262006 481.11613030545 691.92222762006 478.95988030545 694.76597762006 C 476.80363030545 697.60972762006 473.92863030545 699.84410262006 470.33488030545 701.46910262006 C 466.74113030545 703.09410262006 462.75675530545 703.90660262006 458.38175530545 703.90660262006 C 454.69425530545 703.90660262006 451.16300530545 703.28160262006 447.78800530545 702.03160262006 C 444.41300530545 700.78160262006 441.47550530545 699.25035262006 438.97550530545 697.43785262006 L 438.97550530545 684.59410262006 C 441.72550530545 686.59410262006 444.75675530545 688.28160262006 448.06925530545 689.65660262006 C 451.38175530545 691.03160262006 454.91300530545 691.71910262006 458.66300530545 691.71910262006 C 461.28800530545 691.71910262006 463.53800530545 691.20347762006 465.41300530545 690.17222762006 C 467.28800530545 689.14097762006 468.22550530545 687.59410262006 468.22550530545 685.53160262006 C 468.22550530545 683.90660262006 467.45988030545 682.57847762006 465.92863030545 681.54722762006 C 464.39738030545 680.51597762006 462.72550530545 679.65660262006 460.91300530545 678.96910262006 L 451.25675530545 675.21910262006 C 446.38175530545 673.34410262006 443.08488030545 670.89097762006 441.36613030545 667.85972762006 C 439.64738030545 664.82847762006 438.78800530545 661.46910262006 438.78800530545 657.78160262006 C 438.78800530545 653.96910262006 439.83488030545 650.64097762006 441.92863030545 647.79722762006 C 444.02238030545 644.95347762006 446.75675530545 642.73472762006 450.13175530545 641.14097762006 C 453.50675530545 639.54722762006 457.16300530545 638.75035262006 461.10050530545 638.75035262006 Z M 541.63175530545 639.96910262006 L 541.63175530545 651.68785262006 L 521.56925530545 651.68785262006 L 521.56925530545 702.50035262006 L 508.63175530545 702.50035262006 L 508.63175530545 651.68785262006 L 488.56925530545 651.68785262006 L 488.56925530545 639.96910262006 L 541.63175530545 639.96910262006 Z M 574.25675530545 639.50035262006 L 603.50675530545 702.78160262006 L 588.22550530545 702.78160262006 L 583.44425530545 691.06285262006 L 558.60050530545 691.06285262006 L 553.81925530545 702.78160262006 L 538.53800530545 702.78160262006 L 567.78800530545 639.50035262006 L 574.25675530545 639.50035262006 Z M 571.06925530545 660.78160262006 L 563.19425530545 680.00035262006 L 578.94425530545 680.00035262006 L 571.06925530545 660.78160262006 Z M 653.10050530545 639.96910262006 L 653.10050530545 651.68785262006 L 633.03800530545 651.68785262006 L 633.03800530545 702.50035262006 L 620.10050530545 702.50035262006 L 620.10050530545 651.68785262006 L 600.03800530545 651.68785262006 L 600.03800530545 639.96910262006 L 653.10050530545 639.96910262006 Z M 682.16300530545 638.75035262006 C 685.78800530545 638.75035262006 689.10050530545 639.25035262006 692.10050530545 640.25035262006 C 695.10050530545 641.25035262006 697.63175530545 642.40660262006 699.69425530545 643.71910262006 L 699.69425530545 656.56285262006 C 697.44425530545 655.18785262006 695.03800530545 653.90660262006 692.47550530545 652.71910262006 C 689.91300530545 651.53160262006 687.00675530545 650.93785262006 683.75675530545 650.93785262006 C 682.13175530545 650.93785262006 680.52238030545 651.18785262006 678.92863030545 651.68785262006 C 677.33488030545 652.18785262006 676.02238030545 652.93785262006 674.99113030545 653.93785262006 C 673.95988030545 654.93785262006 673.44425530545 656.21910262006 673.44425530545 657.78160262006 C 673.44425530545 659.84410262006 674.35050530545 661.40660262006 676.16300530545 662.46910262006 C 677.97550530545 663.53160262006 680.19425530545 664.59410262006 682.81925530545 665.65660262006 L 690.50675530545 668.84410262006 C 694.88175530545 670.71910262006 698.10050530545 673.00035262006 700.16300530545 675.68785262006 C 702.22550530545 678.37535262006 703.25675530545 681.43785262006 703.25675530545 684.87535262006 C 703.25675530545 688.62535262006 702.17863030545 691.92222762006 700.02238030545 694.76597762006 C 697.86613030545 697.60972762006 694.99113030545 699.84410262006 691.39738030545 701.46910262006 C 687.80363030545 703.09410262006 683.81925530545 703.90660262006 679.44425530545 703.90660262006 C 675.75675530545 703.90660262006 672.22550530545 703.28160262006 668.85050530545 702.03160262006 C 665.47550530545 700.78160262006 662.53800530545 699.25035262006 660.03800530545 697.43785262006 L 660.03800530545 684.59410262006 C 662.78800530545 686.59410262006 665.81925530545 688.28160262006 669.13175530545 689.65660262006 C 672.44425530545 691.03160262006 675.97550530545 691.71910262006 679.72550530545 691.71910262006 C 682.35050530545 691.71910262006 684.60050530545 691.20347762006 686.47550530545 690.17222762006 C 688.35050530545 689.14097762006 689.28800530545 687.59410262006 689.28800530545 685.53160262006 C 689.28800530545 683.90660262006 688.52238030545 682.57847762006 686.99113030545 681.54722762006 C 685.45988030545 680.51597762006 683.78800530545 679.65660262006 681.97550530545 678.96910262006 L 672.31925530545 675.21910262006 C 667.44425530545 673.34410262006 664.14738030545 670.89097762006 662.42863030545 667.85972762006 C 660.70988030545 664.82847762006 659.85050530545 661.46910262006 659.85050530545 657.78160262006 C 659.85050530545 653.96910262006 660.89738030545 650.64097762006 662.99113030545 647.79722762006 C 665.08488030545 644.95347762006 667.81925530545 642.73472762006 671.19425530545 641.14097762006 C 674.56925530545 639.54722762006 678.22550530545 638.75035262006 682.16300530545 638.75035262006 Z M 771.78800530545 639.50035262006 L 801.03800530545 702.78160262006 L 785.75675530545 702.78160262006 L 780.97550530545 691.06285262006 L 756.13175530545 691.06285262006 L 751.35050530545 702.78160262006 L 736.06925530545 702.78160262006 L 765.31925530545 639.50035262006 L 771.78800530545 639.50035262006 Z M 768.60050530545 660.78160262006 L 760.72550530545 680.00035262006 L 776.47550530545 680.00035262006 L 768.60050530545 660.78160262006 Z M 845.10050530545 691.06285262006 L 845.10050530545 702.78160262006 L 810.88175530545 702.78160262006 L 810.88175530545 691.06285262006 L 821.47550530545 691.06285262006 L 821.47550530545 651.68785262006 L 810.88175530545 651.68785262006 L 810.88175530545 639.96910262006 L 845.10050530545 639.96910262006 L 845.10050530545 651.68785262006 L 834.50675530545 651.68785262006 L 834.50675530545 691.06285262006 L 845.10050530545 691.06285262006 Z"/>
</svg>
